<?xml version="1.0" standalone="no"?>
<!DOCTYPE svg PUBLIC "-//W3C//DTD SVG 20010904//EN"
 "http://www.w3.org/TR/2001/REC-SVG-20010904/DTD/svg10.dtd">
<svg version="1.0" xmlns="http://www.w3.org/2000/svg"
 width="512.000000pt" height="512.000000pt" viewBox="0 0 512.000000 512.000000"
 preserveAspectRatio="xMidYMid meet">
<metadata>
Created by potrace 1.11, written by Peter Selinger 2001-2013
</metadata>
<g transform="translate(0.000000,512.000000) scale(0.100000,-0.100000)"
fill="#000000" stroke="none">
<path d="M2365 4099 c-770 -42 -1488 -346 -1893 -802 -138 -155 -258 -360
-310 -529 -76 -246 -71 -532 14 -770 85 -240 273 -499 482 -668 44 -36 81 -71
81 -78 1 -6 -105 -224 -235 -483 -223 -446 -234 -471 -207 -464 15 3 356 103
758 222 401 118 753 220 780 228 44 11 65 10 155 -5 58 -10 157 -24 220 -31
147 -17 581 -17 725 -1 811 93 1472 419 1837 906 123 164 222 386 255 570 18
106 21 302 4 397 -82 480 -435 902 -988 1182 -382 193 -799 300 -1278 327
-196 11 -196 11 -400 -1z m558 -174 c540 -57 1019 -232 1377 -501 287 -216
472 -474 552 -767 19 -70 23 -108 23 -252 0 -147 -3 -181 -23 -255 -90 -330
-308 -607 -662 -845 -100 -67 -365 -199 -501 -249 -523 -193 -1144 -242 -1718
-137 l-99 18 -638 -188 c-351 -103 -640 -186 -642 -184 -2 1 80 169 182 373
l185 369 -73 51 c-257 179 -471 445 -554 687 -52 153 -57 183 -56 365 0 161 3
182 28 264 43 141 81 225 155 337 161 245 375 433 681 597 294 157 692 275
1065 316 176 19 545 19 718 1z"/>
<path d="M3331 2960 c-86 -23 -147 -56 -195 -106 -49 -50 -69 -99 -74 -176 -7
-115 52 -205 173 -265 22 -11 138 -53 258 -93 244 -81 292 -107 316 -177 30
-86 -30 -179 -144 -223 -49 -19 -79 -23 -170 -23 -121 -1 -209 19 -337 73
l-69 29 -10 -27 c-25 -62 -39 -105 -36 -108 13 -13 128 -56 202 -75 121 -32
359 -34 445 -5 176 59 269 165 278 316 11 182 -84 266 -403 359 -197 57 -253
77 -292 107 -94 71 -77 181 38 240 127 64 305 53 473 -30 l88 -43 30 64 c34
76 35 76 -72 117 -126 48 -173 58 -300 62 -103 3 -138 1 -199 -16z"/>
<path d="M880 2895 l0 -65 205 0 205 0 0 -525 0 -525 75 0 75 0 0 525 0 525
205 0 205 0 0 65 0 65 -485 0 -485 0 0 -65z"/>
<path d="M1920 2895 l0 -65 205 0 205 0 0 -525 0 -525 75 0 75 0 0 525 0 525
205 0 205 0 0 65 0 65 -485 0 -485 0 0 -65z"/>
</g>
</svg>
